<?xml version="1.0" encoding="utf-8"?>
<!-- Svg Vector Icons : http://www.onlinewebfonts.com/icon -->
<!DOCTYPE svg PUBLIC "-//W3C//DTD SVG 1.1//EN" "http://www.w3.org/Graphics/SVG/1.1/DTD/svg11.dtd">
<svg version="1.1" xmlns="http://www.w3.org/2000/svg" xmlns:xlink="http://www.w3.org/1999/xlink" x="0px" y="0px" viewBox="0 0 256 256" enable-background="new 0 0 256 256" xml:space="preserve">
<metadata> Svg Vector Icons : http://www.onlinewebfonts.com/icon </metadata>
<g><g><g><path fill="#000000" d="M124,10.4c-5.4,1.4-10.4,5.5-13,10.6c-0.9,1.8-1.7,3.6-1.7,4c0,0.4-0.3,0.7-0.7,0.7c-0.3,0-2.1,0.8-4,1.7c-4.1,2-7.3,5.3-9.3,9.7c-1.3,2.8-1.5,3.7-1.5,7.3c0,3.7,0.1,4.3,1.8,7.7c2.2,4.5,5.6,7.8,10.1,9.7l3.1,1.3v9.7v9.7h-9.7h-9.7l-1.3-3.1c-2-4.4-5.2-7.9-9.7-10.1c-3.3-1.7-4-1.8-7.7-1.8c-3.6,0-4.5,0.2-7.3,1.5c-4.3,2-7.6,5.2-9.7,9.3c-0.9,1.8-1.7,3.6-1.7,4c0,0.4-0.3,0.7-0.7,0.7c-0.3,0-2.1,0.8-4,1.7c-4.1,2-7.3,5.3-9.3,9.7c-1.3,2.8-1.5,3.7-1.5,7.2c0,3.6,0.2,4.4,1.5,7.2c2,4.3,5.2,7.6,9.3,9.7c1.8,0.9,3.6,1.7,4,1.7c0.4,0,0.7,0.3,0.7,0.7c0,0.3,0.8,2.1,1.7,4c2,4.1,5.3,7.3,9.7,9.3c2.8,1.3,3.7,1.5,7.3,1.5c3.7,0,4.3-0.1,7.7-1.8c4.5-2.2,7.8-5.6,9.7-10.1l1.3-3.1h9.7h9.7v36.4v36.4l-3.1,1.3c-4.4,2-7.9,5.2-10.1,9.7c-1.7,3.3-1.8,4-1.8,7.7c0,3.6,0.2,4.5,1.5,7.3c2,4.3,5.2,7.6,9.3,9.7c1.8,0.9,3.6,1.7,4,1.7c0.4,0,0.7,0.3,0.7,0.7c0,0.3,0.8,2.1,1.7,4c2,4.1,5.3,7.3,9.7,9.3c2.8,1.3,3.7,1.5,7.2,1.5c3.6,0,4.4-0.2,7.2-1.5c4.3-2.1,7.6-5.2,9.7-9.3c0.9-1.8,1.7-3.6,1.7-4c0-0.4,0.3-0.7,0.7-0.7c0.3,0,2.1-0.8,4-1.7c4.1-2,7.3-5.3,9.3-9.7c1.3-2.8,1.5-3.7,1.5-7.3c0-3.7-0.1-4.3-1.8-7.7c-2.2-4.5-5.6-7.8-10.1-9.7l-3.1-1.3v-36.4v-36.3h9.7h9.7l1.3,3.1c2,4.4,5.2,7.9,9.7,10.1c3.3,1.7,4,1.8,7.7,1.8c3.6,0,4.5-0.2,7.3-1.5c4.3-2,7.6-5.2,9.7-9.3c0.9-1.8,1.7-3.6,1.7-4c0-0.4,0.3-0.7,0.7-0.7c0.3,0,2.1-0.8,4-1.7c4.1-2,7.3-5.3,9.3-9.7c1.3-2.8,1.5-3.7,1.5-7.2s-0.2-4.4-1.5-7.2c-2-4.3-5.2-7.6-9.3-9.7c-1.8-0.9-3.6-1.7-4-1.7c-0.4,0-0.7-0.3-0.7-0.7c0-0.3-0.8-2.1-1.7-4c-2-4.1-5.3-7.3-9.7-9.3c-2.8-1.3-3.7-1.5-7.3-1.5c-3.7,0-4.3,0.1-7.7,1.8c-4.5,2.2-7.8,5.6-9.7,10.1l-1.3,3.1h-9.7h-9.7v-9.7V63l3.1-1.3c4.4-2,7.9-5.2,10.1-9.7c1.7-3.3,1.8-4,1.8-7.7c0-3.6-0.2-4.5-1.5-7.3c-2-4.3-5.2-7.6-9.3-9.7c-1.8-0.9-3.6-1.7-4-1.7c-0.4,0-0.7-0.3-0.7-0.7c0-1.6-3.5-7.4-5.7-9.5C136.3,11.2,129.3,9.1,124,10.4z M132,18.1c2.6,0.7,5.8,3.8,6.7,6.5c0.4,1.2,0.8,3.6,0.8,5.2v3h3c4.1,0,6.3,0.7,8.7,2.9c6.1,5.6,4.1,16.7-3.5,19.2c-1.2,0.4-3.5,0.7-5.2,0.7h-3v17.2V90h17.2h17.2v-3c0-4.4,0.8-6.4,3.3-9c2.4-2.4,4.6-3.3,8.1-3.3c3.3,0,5.6,0.9,7.9,2.9c2.5,2.3,3.6,5.1,3.6,9.3v3h3c4.1,0,6.3,0.7,8.7,2.9c6.1,5.6,4.1,16.5-3.5,19.3c-1.1,0.4-3.4,0.7-5.1,0.7h-3v3c0,1.7-0.3,4-0.7,5.2c-2.6,7.5-13.6,9.5-19.2,3.5c-2.2-2.4-2.9-4.5-2.9-8.7v-3h-17.2h-17.2v43.8v43.8h3c4.1,0,6.3,0.7,8.7,2.9c6.1,5.6,4.1,16.7-3.5,19.2c-1.2,0.4-3.5,0.7-5.2,0.7h-3v3c0,1.7-0.3,4-0.7,5.1c-2.7,7.6-13.6,9.6-19.2,3.5c-2.2-2.4-2.9-4.5-2.9-8.7v-3h-3c-4,0-6.9-1-9.1-3.2c-4.4-4.5-4.3-12,0.1-16.3c2.5-2.5,4.5-3.3,9-3.3h3v-43.8v-43.8H99.4H82.3v3c0,4-1,6.9-3.2,9.1c-4.3,4.2-12.1,4.2-16.4,0c-2.2-2.1-3.2-5.1-3.2-9.1v-3h-3c-3.9,0-6.7-1-9-3.2c-4.3-4.2-4.3-12.1,0-16.4c2.1-2.2,5.1-3.2,9.1-3.2h3v-3c0-4,1-6.9,3.2-9.1c4.4-4.3,12.2-4.2,16.4,0c2.2,2.2,3.2,5.1,3.2,9v3h17.2h17.2V72.8V55.7h-3c-4,0-6.9-1-9.1-3.2c-5.6-5.8-3.4-16.4,3.9-18.9c1.2-0.4,3.5-0.7,5.2-0.7h3v-3c0-7.4,4.3-12.1,11.2-12.2C129.1,17.5,131,17.8,132,18.1z"/><path fill="#000000" d="M124.7,33.4c-2.4,0.8-6.8,5.3-7.5,7.8c-1.2,4.2-0.3,7.1,3.2,10.7c5,5.1,10.2,5.1,15.2,0c2.6-2.6,3.8-5,3.8-7.6s-1.2-5-3.8-7.6C132.1,33,128.9,32.1,124.7,33.4z M130.9,41.4c0.6,0.6,1,1.6,1,2.9c0,1.3-0.3,2.2-1,2.9c-0.6,0.6-1.6,1-2.9,1c-2.5,0-3.8-1.3-3.8-3.8c0-1.3,0.3-2.2,1-2.9c0.6-0.6,1.6-1,2.9-1C129.3,40.4,130.2,40.7,130.9,41.4z"/><path fill="#000000" d="M67.5,90.6c-2.4,0.8-6.8,5.3-7.5,7.8c-1.2,4.2-0.3,7.1,3.2,10.7c5,5.1,10.2,5.1,15.2,0c5.1-5,5.1-10.2,0-15.2C74.9,90.2,71.7,89.3,67.5,90.6z M73.7,98.5c0.6,0.6,1,1.6,1,2.9c0,2.5-1.3,3.8-3.8,3.8c-2.5,0-3.8-1.3-3.8-3.8c0-1.3,0.3-2.2,1-2.9c0.6-0.6,1.6-1,2.9-1C72.1,97.6,73.1,97.9,73.7,98.5z"/><path fill="#000000" d="M181.8,90.6c-2.4,0.8-6.8,5.3-7.5,7.8c-0.3,1.1-0.6,2.5-0.6,3c0,5.2,6.2,11.4,11.4,11.4s11.4-6.2,11.4-11.4c0-2.6-1.2-5-3.8-7.6C189.3,90.2,186,89.3,181.8,90.6z M188,98.5c0.6,0.6,1,1.6,1,2.9s-0.3,2.2-1,2.9c-0.6,0.6-1.6,1-2.9,1s-2.2-0.3-2.9-1c-0.6-0.6-1-1.6-1-2.9s0.3-2.2,1-2.9c0.6-0.6,1.6-1,2.9-1S187.4,97.9,188,98.5z"/><path fill="#000000" d="M124.7,201.1c-2.4,0.8-6.8,5.3-7.5,7.8c-0.3,1.1-0.6,2.5-0.6,3c0,5.2,6.2,11.4,11.4,11.4s11.4-6.2,11.4-11.4c0-2.6-1.2-5.1-3.8-7.6C132.1,200.7,128.9,199.8,124.7,201.1z M130.9,209.1c0.6,0.6,1,1.6,1,2.9c0,2.5-1.3,3.8-3.8,3.8c-1.3,0-2.2-0.3-2.9-1c-0.6-0.6-1-1.6-1-2.9c0-2.5,1.3-3.8,3.8-3.8C129.3,208.1,130.2,208.5,130.9,209.1z"/></g></g></g>
</svg>